<svg xmlns="http://www.w3.org/2000/svg" xmlns:xlink="http://www.w3.org/1999/xlink" width="350" zoomAndPan="magnify" viewBox="0 0 375 374.999991" height="400" preserveAspectRatio="xMidYMid meet" version="1.0"><defs><g/></defs><rect x="-37.5" width="250" fill="#ffffff" y="-37.499999" height="449.999989" fill-opacity="1"/><rect x="-37.5" width="250" fill="#ffffff" y="-37.499999" height="300" fill-opacity="1"/><rect x="-37.5" width="450" fill="#ffffff" y="-37.499999" height="449.999989" fill-opacity="1"/><g fill="#000000" fill-opacity="1"><g transform="translate(17.013444, 174.523061)"><g/></g></g><g fill="#000000" fill-opacity="1"><g transform="translate(34.026883, 174.523061)"><g/></g></g><g fill="#000000" fill-opacity="1"><g transform="translate(51.040323, 174.523061)"><g/></g></g><g fill="#000000" fill-opacity="1"><g transform="translate(68.053762, 174.523061)"><g/></g></g><g fill="#000000" fill-opacity="1"><g transform="translate(85.066405, 174.523061)"><g><path d="M 3.152344 -9.074219 C 3.152344 -3.152344 6.300781 0 12.226562 0 L 20.546875 0 C 26.40625 0 29.621094 -3.152344 29.621094 -9.074219 L 29.621094 -26.59375 C 29.621094 -27.289062 29.242188 -27.605469 28.613281 -27.605469 L 18.023438 -27.605469 C 17.332031 -27.605469 17.015625 -27.289062 17.015625 -26.59375 L 17.015625 -20.292969 C 17.015625 -19.664062 17.332031 -19.285156 18.023438 -19.285156 L 21.300781 -19.285156 L 21.300781 -10.839844 C 21.300781 -9.136719 20.417969 -8.320312 18.78125 -8.320312 L 14.242188 -8.320312 C 12.605469 -8.320312 11.722656 -9.136719 11.722656 -10.839844 L 11.722656 -39.578125 C 11.722656 -41.214844 12.542969 -42.097656 14.242188 -42.097656 L 18.78125 -42.097656 C 20.417969 -42.097656 21.300781 -41.214844 21.300781 -39.578125 L 21.300781 -34.789062 C 21.300781 -34.15625 21.617188 -33.78125 22.308594 -33.78125 L 28.613281 -33.78125 C 29.242188 -33.78125 29.621094 -34.15625 29.621094 -34.789062 L 29.621094 -41.34375 C 29.621094 -47.265625 26.40625 -50.417969 20.546875 -50.417969 L 12.226562 -50.417969 C 6.300781 -50.417969 3.152344 -47.265625 3.152344 -41.34375 Z M 3.152344 -9.074219 "/></g></g></g><g fill="#38b6ff" fill-opacity="1"><g transform="translate(119.085934, 174.523061)"><g><path d="M 29.054688 -41.34375 C 29.054688 -47.265625 25.902344 -50.417969 19.976562 -50.417969 L 4.160156 -50.417969 C 3.527344 -50.417969 3.152344 -50.039062 3.152344 -49.410156 L 3.152344 -1.007812 C 3.152344 -0.378906 3.527344 0 4.160156 0 L 10.714844 0 C 11.34375 0 11.722656 -0.378906 11.722656 -1.007812 L 11.722656 -16.890625 L 16.070312 -16.890625 L 20.292969 -0.882812 C 20.417969 -0.316406 20.734375 0 21.363281 0 L 27.917969 0 C 28.613281 0 28.992188 -0.378906 28.800781 -1.132812 L 24.453125 -17.644531 C 27.476562 -18.96875 29.054688 -21.742188 29.054688 -25.964844 Z M 11.722656 -25.210938 L 11.722656 -42.097656 L 17.960938 -42.097656 C 19.601562 -42.097656 20.480469 -41.214844 20.480469 -39.578125 L 20.480469 -27.730469 C 20.480469 -26.089844 19.601562 -25.210938 17.960938 -25.210938 Z M 11.722656 -25.210938 "/></g></g></g><g fill="#000000" fill-opacity="1"><g transform="translate(152.542967, 174.523061)"><g><path d="M 3.152344 -9.074219 C 3.152344 -3.152344 6.300781 0 12.226562 0 L 19.285156 0 C 25.210938 0 28.359375 -3.152344 28.359375 -9.074219 L 28.359375 -41.34375 C 28.359375 -47.265625 25.210938 -50.417969 19.285156 -50.417969 L 12.226562 -50.417969 C 6.300781 -50.417969 3.152344 -47.265625 3.152344 -41.34375 Z M 14.054688 -8.128906 C 12.414062 -8.128906 11.53125 -8.949219 11.53125 -10.652344 L 11.53125 -39.765625 C 11.53125 -41.40625 12.414062 -42.289062 14.054688 -42.289062 L 17.710938 -42.289062 C 19.347656 -42.289062 20.230469 -41.40625 20.230469 -39.765625 L 20.230469 -10.652344 C 20.230469 -8.949219 19.347656 -8.128906 17.710938 -8.128906 Z M 14.054688 -8.128906 "/></g></g></g><g fill="#38b6ff" fill-opacity="1"><g transform="translate(185.30859, 174.523061)"><g><path d="M 28.421875 -41.34375 C 28.421875 -47.265625 25.210938 -50.417969 19.285156 -50.417969 L 4.160156 -50.417969 C 3.527344 -50.417969 3.152344 -50.101562 3.152344 -49.410156 L 3.152344 -1.007812 C 3.152344 -0.378906 3.527344 0 4.160156 0 L 19.285156 0 C 25.210938 0 28.421875 -3.152344 28.421875 -9.074219 L 28.421875 -20.671875 C 28.421875 -23.003906 26.722656 -24.769531 24.453125 -25.144531 L 24.453125 -25.273438 C 26.722656 -25.648438 28.421875 -27.414062 28.421875 -29.746094 Z M 20.042969 -31.828125 C 20.042969 -30.25 19.160156 -29.367188 17.519531 -29.367188 L 11.785156 -29.367188 L 11.785156 -42.097656 L 17.519531 -42.097656 C 19.222656 -42.097656 20.042969 -41.214844 20.042969 -39.578125 Z M 20.042969 -10.839844 C 20.042969 -9.136719 19.160156 -8.320312 17.519531 -8.320312 L 11.785156 -8.320312 L 11.785156 -21.050781 L 17.519531 -21.050781 C 19.222656 -21.050781 20.042969 -20.167969 20.042969 -18.527344 Z M 20.042969 -10.839844 "/></g></g></g><g fill="#38b6ff" fill-opacity="1"><g transform="translate(218.137959, 174.523061)"><g><path d="M 28.421875 -41.34375 C 28.421875 -47.265625 25.210938 -50.417969 19.285156 -50.417969 L 4.160156 -50.417969 C 3.527344 -50.417969 3.152344 -50.101562 3.152344 -49.410156 L 3.152344 -1.007812 C 3.152344 -0.378906 3.527344 0 4.160156 0 L 19.285156 0 C 25.210938 0 28.421875 -3.152344 28.421875 -9.074219 L 28.421875 -20.671875 C 28.421875 -23.003906 26.722656 -24.769531 24.453125 -25.144531 L 24.453125 -25.273438 C 26.722656 -25.648438 28.421875 -27.414062 28.421875 -29.746094 Z M 20.042969 -31.828125 C 20.042969 -30.25 19.160156 -29.367188 17.519531 -29.367188 L 11.785156 -29.367188 L 11.785156 -42.097656 L 17.519531 -42.097656 C 19.222656 -42.097656 20.042969 -41.214844 20.042969 -39.578125 Z M 20.042969 -10.839844 C 20.042969 -9.136719 19.160156 -8.320312 17.519531 -8.320312 L 11.785156 -8.320312 L 11.785156 -21.050781 L 17.519531 -21.050781 C 19.222656 -21.050781 20.042969 -20.167969 20.042969 -18.527344 Z M 20.042969 -10.839844 "/></g></g></g><g fill="#000000" fill-opacity="1"><g transform="translate(250.957023, 174.523061)"><g><path d="M 4.160156 -50.417969 C 3.464844 -50.417969 3.152344 -50.039062 3.152344 -49.410156 L 3.152344 -1.007812 C 3.152344 -0.378906 3.464844 0 4.160156 0 L 10.714844 0 C 11.34375 0 11.722656 -0.378906 11.722656 -1.007812 L 11.722656 -49.410156 C 11.722656 -50.039062 11.34375 -50.417969 10.714844 -50.417969 Z M 4.160156 -50.417969 "/></g></g></g><g fill="#38b6ff" fill-opacity="1"><g transform="translate(267.082022, 174.523061)"><g><path d="M 4.664062 -50.417969 C 4.035156 -50.355469 3.65625 -50.039062 3.65625 -49.347656 L 3.65625 -43.042969 C 3.65625 -42.414062 4.035156 -42.035156 4.664062 -42.035156 L 17.710938 -42.035156 L 2.015625 -1.511719 C 1.636719 -0.628906 1.953125 0 2.960938 0 L 27.476562 0 C 28.109375 -0.0625 28.484375 -0.441406 28.484375 -1.070312 L 28.484375 -7.3125 C 28.484375 -8.003906 28.109375 -8.320312 27.476562 -8.320312 L 13.613281 -8.320312 L 29.304688 -48.90625 C 29.621094 -49.789062 29.367188 -50.417969 28.359375 -50.417969 Z M 4.664062 -50.417969 "/></g></g></g><g fill="#000000" fill-opacity="1"><g transform="translate(83.894531, 213.226481)"><g><path d="M 4.6875 0 L 3 0 L 3 -3.359375 L 0.046875 -8.5625 L 1.859375 -8.5625 L 3.8125 -5.203125 L 3.96875 -5.203125 L 5.875 -8.5625 L 7.65625 -8.5625 L 4.6875 -3.359375 Z M 4.6875 0 "/></g></g><g transform="translate(91.587889, 213.226481)"><g><path d="M 4.671875 0.125 C 3.890625 0.125 3.195312 -0.0351562 2.59375 -0.359375 C 1.988281 -0.679688 1.515625 -1.171875 1.171875 -1.828125 C 0.835938 -2.484375 0.671875 -3.300781 0.671875 -4.28125 C 0.671875 -5.257812 0.835938 -6.078125 1.171875 -6.734375 C 1.515625 -7.398438 1.988281 -7.890625 2.59375 -8.203125 C 3.195312 -8.523438 3.890625 -8.6875 4.671875 -8.6875 C 5.453125 -8.6875 6.140625 -8.523438 6.734375 -8.203125 C 7.335938 -7.890625 7.804688 -7.398438 8.140625 -6.734375 C 8.484375 -6.078125 8.65625 -5.257812 8.65625 -4.28125 C 8.65625 -3.300781 8.484375 -2.476562 8.140625 -1.8125 C 7.804688 -1.15625 7.335938 -0.664062 6.734375 -0.34375 C 6.140625 -0.03125 5.453125 0.125 4.671875 0.125 Z M 4.671875 -1.34375 C 5.398438 -1.34375 5.953125 -1.578125 6.328125 -2.046875 C 6.710938 -2.515625 6.90625 -3.257812 6.90625 -4.28125 C 6.90625 -5.300781 6.710938 -6.046875 6.328125 -6.515625 C 5.953125 -6.984375 5.398438 -7.21875 4.671875 -7.21875 C 3.941406 -7.21875 3.382812 -6.984375 3 -6.515625 C 2.613281 -6.046875 2.421875 -5.300781 2.421875 -4.28125 C 2.421875 -3.257812 2.613281 -2.515625 3 -2.046875 C 3.382812 -1.578125 3.941406 -1.34375 4.671875 -1.34375 Z M 4.671875 -1.34375 "/></g></g><g transform="translate(100.921873, 213.226481)"><g><path d="M 4.546875 0.125 C 3.359375 0.125 2.476562 -0.15625 1.90625 -0.71875 C 1.34375 -1.28125 1.0625 -2.113281 1.0625 -3.21875 L 1.0625 -8.5625 L 2.71875 -8.5625 L 2.71875 -3.21875 C 2.71875 -2.59375 2.867188 -2.125 3.171875 -1.8125 C 3.472656 -1.5 3.929688 -1.34375 4.546875 -1.34375 C 5.753906 -1.34375 6.359375 -1.96875 6.359375 -3.21875 L 6.359375 -8.5625 L 8.015625 -8.5625 L 8.015625 -3.21875 C 8.015625 -2.113281 7.726562 -1.28125 7.15625 -0.71875 C 6.59375 -0.15625 5.722656 0.125 4.546875 0.125 Z M 4.546875 0.125 "/></g></g><g transform="translate(110.003904, 213.226481)"><g><path d="M 1.109375 0 L 1.109375 -8.5625 L 4.546875 -8.5625 C 5.441406 -8.5625 6.113281 -8.359375 6.5625 -7.953125 C 7.007812 -7.546875 7.234375 -6.984375 7.234375 -6.265625 C 7.234375 -5.742188 7.101562 -5.316406 6.84375 -4.984375 C 6.582031 -4.648438 6.1875 -4.394531 5.65625 -4.21875 L 5.65625 -4.109375 C 5.925781 -3.984375 6.144531 -3.804688 6.3125 -3.578125 C 6.476562 -3.347656 6.632812 -3.007812 6.78125 -2.5625 L 7.640625 0 L 5.90625 0 L 5.0625 -2.5625 C 4.976562 -2.820312 4.878906 -3.019531 4.765625 -3.15625 C 4.660156 -3.300781 4.523438 -3.40625 4.359375 -3.46875 C 4.191406 -3.53125 3.976562 -3.5625 3.71875 -3.5625 L 2.8125 -3.5625 L 2.8125 0 Z M 4.34375 -4.90625 C 5.164062 -4.90625 5.578125 -5.289062 5.578125 -6.0625 C 5.578125 -6.832031 5.164062 -7.21875 4.34375 -7.21875 L 2.8125 -7.21875 L 2.8125 -4.90625 Z M 4.34375 -4.90625 "/></g></g><g transform="translate(118.013669, 213.226481)"><g/></g></g><g fill="#38b6ff" fill-opacity="1"><g transform="translate(120.843747, 213.226481)"><g><path d="M 4.203125 -8.5625 C 5.585938 -8.5625 6.644531 -8.203125 7.375 -7.484375 C 8.113281 -6.765625 8.484375 -5.695312 8.484375 -4.28125 C 8.484375 -2.863281 8.113281 -1.796875 7.375 -1.078125 C 6.644531 -0.359375 5.585938 0 4.203125 0 L 1.109375 0 L 1.109375 -8.5625 Z M 4.09375 -1.421875 C 4.976562 -1.421875 5.640625 -1.644531 6.078125 -2.09375 C 6.515625 -2.550781 6.734375 -3.28125 6.734375 -4.28125 C 6.734375 -5.289062 6.515625 -6.019531 6.078125 -6.46875 C 5.640625 -6.914062 4.976562 -7.140625 4.09375 -7.140625 L 2.8125 -7.140625 L 2.8125 -1.421875 Z M 4.09375 -1.421875 "/></g></g><g transform="translate(130.001949, 213.226481)"><g><path d="M 2.8125 0 L 1.109375 0 L 1.109375 -8.5625 L 2.8125 -8.5625 Z M 2.8125 0 "/></g></g><g transform="translate(133.92773, 213.226481)"><g><path d="M 4.15625 0.125 C 3.445312 0.125 2.832031 -0.0351562 2.3125 -0.359375 C 1.789062 -0.691406 1.382812 -1.1875 1.09375 -1.84375 C 0.8125 -2.5 0.671875 -3.3125 0.671875 -4.28125 C 0.671875 -5.257812 0.835938 -6.078125 1.171875 -6.734375 C 1.515625 -7.390625 1.988281 -7.878906 2.59375 -8.203125 C 3.195312 -8.523438 3.898438 -8.6875 4.703125 -8.6875 C 5.523438 -8.6875 6.222656 -8.535156 6.796875 -8.234375 C 7.378906 -7.929688 7.785156 -7.476562 8.015625 -6.875 L 6.78125 -6.125 L 6.640625 -6.125 C 6.460938 -6.507812 6.210938 -6.789062 5.890625 -6.96875 C 5.578125 -7.144531 5.179688 -7.234375 4.703125 -7.234375 C 3.960938 -7.234375 3.394531 -7 3 -6.53125 C 2.613281 -6.0625 2.421875 -5.3125 2.421875 -4.28125 C 2.421875 -3.25 2.601562 -2.5 2.96875 -2.03125 C 3.332031 -1.5625 3.875 -1.328125 4.59375 -1.328125 C 5.207031 -1.328125 5.660156 -1.460938 5.953125 -1.734375 C 6.242188 -2.015625 6.390625 -2.429688 6.390625 -2.984375 L 6.390625 -3.359375 L 4.359375 -3.359375 L 4.359375 -4.734375 L 8.078125 -4.734375 L 8.078125 0 L 6.453125 0 L 6.453125 -1.15625 L 6.328125 -1.171875 C 6.160156 -0.753906 5.894531 -0.429688 5.53125 -0.203125 C 5.175781 0.015625 4.71875 0.125 4.15625 0.125 Z M 4.15625 0.125 "/></g></g><g transform="translate(142.863277, 213.226481)"><g><path d="M 2.8125 0 L 1.109375 0 L 1.109375 -8.5625 L 2.8125 -8.5625 Z M 2.8125 0 "/></g></g><g transform="translate(146.789058, 213.226481)"><g><path d="M 6.875 -8.5625 L 6.875 -7.140625 L 4.390625 -7.140625 L 4.390625 0 L 2.703125 0 L 2.703125 -7.140625 L 0.234375 -7.140625 L 0.234375 -8.5625 Z M 6.875 -8.5625 "/></g></g><g transform="translate(153.89062, 213.226481)"><g><path d="M 8.21875 0 L 6.4375 0 L 5.796875 -1.96875 L 2.515625 -1.96875 L 1.875 0 L 0.125 0 L 3.09375 -8.5625 L 5.265625 -8.5625 Z M 4.078125 -6.78125 L 2.96875 -3.40625 L 5.328125 -3.40625 L 4.21875 -6.78125 Z M 4.078125 -6.78125 "/></g></g><g transform="translate(162.240229, 213.226481)"><g><path d="M 2.8125 -8.5625 L 2.8125 -1.421875 L 6.65625 -1.421875 L 6.65625 0 L 1.109375 0 L 1.109375 -8.5625 Z M 2.8125 -8.5625 "/></g></g><g transform="translate(169.177728, 213.226481)"><g/></g></g><g fill="#000000" fill-opacity="1"><g transform="translate(172.007806, 213.226481)"><g><path d="M 1.109375 0 L 1.109375 -8.5625 L 4.765625 -8.5625 C 5.296875 -8.5625 5.742188 -8.476562 6.109375 -8.3125 C 6.472656 -8.144531 6.75 -7.910156 6.9375 -7.609375 C 7.125 -7.304688 7.21875 -6.941406 7.21875 -6.515625 C 7.21875 -6.140625 7.125 -5.804688 6.9375 -5.515625 C 6.757812 -5.234375 6.5 -5.003906 6.15625 -4.828125 L 6.15625 -4.703125 C 6.695312 -4.554688 7.113281 -4.296875 7.40625 -3.921875 C 7.695312 -3.554688 7.84375 -3.101562 7.84375 -2.5625 C 7.84375 -1.75 7.59375 -1.117188 7.09375 -0.671875 C 6.601562 -0.222656 5.875 0 4.90625 0 Z M 4.421875 -5.15625 C 5.210938 -5.15625 5.609375 -5.507812 5.609375 -6.21875 C 5.609375 -6.582031 5.507812 -6.851562 5.3125 -7.03125 C 5.113281 -7.207031 4.816406 -7.296875 4.421875 -7.296875 L 2.8125 -7.296875 L 2.8125 -5.15625 Z M 4.734375 -1.34375 C 5.660156 -1.34375 6.125 -1.765625 6.125 -2.609375 C 6.125 -3.460938 5.660156 -3.890625 4.734375 -3.890625 L 2.8125 -3.890625 L 2.8125 -1.34375 Z M 4.734375 -1.34375 "/></g></g><g transform="translate(180.386712, 213.226481)"><g><path d="M 4.546875 0.125 C 3.359375 0.125 2.476562 -0.15625 1.90625 -0.71875 C 1.34375 -1.28125 1.0625 -2.113281 1.0625 -3.21875 L 1.0625 -8.5625 L 2.71875 -8.5625 L 2.71875 -3.21875 C 2.71875 -2.59375 2.867188 -2.125 3.171875 -1.8125 C 3.472656 -1.5 3.929688 -1.34375 4.546875 -1.34375 C 5.753906 -1.34375 6.359375 -1.96875 6.359375 -3.21875 L 6.359375 -8.5625 L 8.015625 -8.5625 L 8.015625 -3.21875 C 8.015625 -2.113281 7.726562 -1.28125 7.15625 -0.71875 C 6.59375 -0.15625 5.722656 0.125 4.546875 0.125 Z M 4.546875 0.125 "/></g></g><g transform="translate(189.468742, 213.226481)"><g><path d="M 3.796875 0.125 C 3.203125 0.125 2.671875 0.0507812 2.203125 -0.09375 C 1.742188 -0.238281 1.359375 -0.429688 1.046875 -0.671875 C 0.742188 -0.910156 0.507812 -1.171875 0.34375 -1.453125 L 1.28125 -2.59375 L 1.421875 -2.59375 C 1.679688 -2.207031 2.007812 -1.898438 2.40625 -1.671875 C 2.800781 -1.453125 3.265625 -1.34375 3.796875 -1.34375 C 4.253906 -1.34375 4.597656 -1.4375 4.828125 -1.625 C 5.054688 -1.820312 5.171875 -2.085938 5.171875 -2.421875 C 5.171875 -2.617188 5.132812 -2.785156 5.0625 -2.921875 C 4.988281 -3.066406 4.863281 -3.1875 4.6875 -3.28125 C 4.519531 -3.375 4.285156 -3.457031 3.984375 -3.53125 L 2.890625 -3.78125 C 2.117188 -3.957031 1.546875 -4.25 1.171875 -4.65625 C 0.796875 -5.070312 0.609375 -5.601562 0.609375 -6.25 C 0.609375 -6.738281 0.726562 -7.164062 0.96875 -7.53125 C 1.207031 -7.894531 1.554688 -8.175781 2.015625 -8.375 C 2.484375 -8.582031 3.039062 -8.6875 3.6875 -8.6875 C 4.34375 -8.6875 4.90625 -8.597656 5.375 -8.421875 C 5.851562 -8.253906 6.253906 -7.988281 6.578125 -7.625 L 5.734375 -6.484375 L 5.59375 -6.484375 C 5.351562 -6.734375 5.078125 -6.921875 4.765625 -7.046875 C 4.453125 -7.179688 4.09375 -7.25 3.6875 -7.25 C 3.21875 -7.25 2.863281 -7.164062 2.625 -7 C 2.382812 -6.832031 2.265625 -6.601562 2.265625 -6.3125 C 2.265625 -6.039062 2.347656 -5.828125 2.515625 -5.671875 C 2.679688 -5.515625 2.976562 -5.390625 3.40625 -5.296875 L 4.53125 -5.0625 C 5.351562 -4.882812 5.953125 -4.585938 6.328125 -4.171875 C 6.703125 -3.753906 6.890625 -3.207031 6.890625 -2.53125 C 6.890625 -1.988281 6.773438 -1.519531 6.546875 -1.125 C 6.316406 -0.726562 5.96875 -0.421875 5.5 -0.203125 C 5.039062 0.015625 4.472656 0.125 3.796875 0.125 Z M 3.796875 0.125 "/></g></g><g transform="translate(196.828117, 213.226481)"><g><path d="M 2.8125 0 L 1.109375 0 L 1.109375 -8.5625 L 2.8125 -8.5625 Z M 2.8125 0 "/></g></g><g transform="translate(200.753898, 213.226481)"><g><path d="M 2.75 0 L 1.109375 0 L 1.109375 -8.5625 L 3.046875 -8.5625 L 6.5 -3.046875 L 6.640625 -3.078125 L 6.640625 -8.5625 L 8.28125 -8.5625 L 8.28125 0 L 6.546875 0 L 2.90625 -5.890625 L 2.75 -5.875 Z M 2.75 0 "/></g></g><g transform="translate(210.146475, 213.226481)"><g><path d="M 2.8125 -3.765625 L 2.8125 -1.421875 L 6.890625 -1.421875 L 6.890625 0 L 1.109375 0 L 1.109375 -8.5625 L 6.796875 -8.5625 L 6.796875 -7.15625 L 2.8125 -7.15625 L 2.8125 -5.140625 L 6.296875 -5.140625 L 6.296875 -3.765625 Z M 2.8125 -3.765625 "/></g></g><g transform="translate(217.511709, 213.226481)"><g><path d="M 3.796875 0.125 C 3.203125 0.125 2.671875 0.0507812 2.203125 -0.09375 C 1.742188 -0.238281 1.359375 -0.429688 1.046875 -0.671875 C 0.742188 -0.910156 0.507812 -1.171875 0.34375 -1.453125 L 1.28125 -2.59375 L 1.421875 -2.59375 C 1.679688 -2.207031 2.007812 -1.898438 2.40625 -1.671875 C 2.800781 -1.453125 3.265625 -1.34375 3.796875 -1.34375 C 4.253906 -1.34375 4.597656 -1.4375 4.828125 -1.625 C 5.054688 -1.820312 5.171875 -2.085938 5.171875 -2.421875 C 5.171875 -2.617188 5.132812 -2.785156 5.0625 -2.921875 C 4.988281 -3.066406 4.863281 -3.1875 4.6875 -3.28125 C 4.519531 -3.375 4.285156 -3.457031 3.984375 -3.53125 L 2.890625 -3.78125 C 2.117188 -3.957031 1.546875 -4.25 1.171875 -4.65625 C 0.796875 -5.070312 0.609375 -5.601562 0.609375 -6.25 C 0.609375 -6.738281 0.726562 -7.164062 0.96875 -7.53125 C 1.207031 -7.894531 1.554688 -8.175781 2.015625 -8.375 C 2.484375 -8.582031 3.039062 -8.6875 3.6875 -8.6875 C 4.34375 -8.6875 4.90625 -8.597656 5.375 -8.421875 C 5.851562 -8.253906 6.253906 -7.988281 6.578125 -7.625 L 5.734375 -6.484375 L 5.59375 -6.484375 C 5.351562 -6.734375 5.078125 -6.921875 4.765625 -7.046875 C 4.453125 -7.179688 4.09375 -7.25 3.6875 -7.25 C 3.21875 -7.25 2.863281 -7.164062 2.625 -7 C 2.382812 -6.832031 2.265625 -6.601562 2.265625 -6.3125 C 2.265625 -6.039062 2.347656 -5.828125 2.515625 -5.671875 C 2.679688 -5.515625 2.976562 -5.390625 3.40625 -5.296875 L 4.53125 -5.0625 C 5.351562 -4.882812 5.953125 -4.585938 6.328125 -4.171875 C 6.703125 -3.753906 6.890625 -3.207031 6.890625 -2.53125 C 6.890625 -1.988281 6.773438 -1.519531 6.546875 -1.125 C 6.316406 -0.726562 5.96875 -0.421875 5.5 -0.203125 C 5.039062 0.015625 4.472656 0.125 3.796875 0.125 Z M 3.796875 0.125 "/></g></g><g transform="translate(224.871084, 213.226481)"><g><path d="M 3.796875 0.125 C 3.203125 0.125 2.671875 0.0507812 2.203125 -0.09375 C 1.742188 -0.238281 1.359375 -0.429688 1.046875 -0.671875 C 0.742188 -0.910156 0.507812 -1.171875 0.34375 -1.453125 L 1.28125 -2.59375 L 1.421875 -2.59375 C 1.679688 -2.207031 2.007812 -1.898438 2.40625 -1.671875 C 2.800781 -1.453125 3.265625 -1.34375 3.796875 -1.34375 C 4.253906 -1.34375 4.597656 -1.4375 4.828125 -1.625 C 5.054688 -1.820312 5.171875 -2.085938 5.171875 -2.421875 C 5.171875 -2.617188 5.132812 -2.785156 5.0625 -2.921875 C 4.988281 -3.066406 4.863281 -3.1875 4.6875 -3.28125 C 4.519531 -3.375 4.285156 -3.457031 3.984375 -3.53125 L 2.890625 -3.78125 C 2.117188 -3.957031 1.546875 -4.25 1.171875 -4.65625 C 0.796875 -5.070312 0.609375 -5.601562 0.609375 -6.25 C 0.609375 -6.738281 0.726562 -7.164062 0.96875 -7.53125 C 1.207031 -7.894531 1.554688 -8.175781 2.015625 -8.375 C 2.484375 -8.582031 3.039062 -8.6875 3.6875 -8.6875 C 4.34375 -8.6875 4.90625 -8.597656 5.375 -8.421875 C 5.851562 -8.253906 6.253906 -7.988281 6.578125 -7.625 L 5.734375 -6.484375 L 5.59375 -6.484375 C 5.351562 -6.734375 5.078125 -6.921875 4.765625 -7.046875 C 4.453125 -7.179688 4.09375 -7.25 3.6875 -7.25 C 3.21875 -7.25 2.863281 -7.164062 2.625 -7 C 2.382812 -6.832031 2.265625 -6.601562 2.265625 -6.3125 C 2.265625 -6.039062 2.347656 -5.828125 2.515625 -5.671875 C 2.679688 -5.515625 2.976562 -5.390625 3.40625 -5.296875 L 4.53125 -5.0625 C 5.351562 -4.882812 5.953125 -4.585938 6.328125 -4.171875 C 6.703125 -3.753906 6.890625 -3.207031 6.890625 -2.53125 C 6.890625 -1.988281 6.773438 -1.519531 6.546875 -1.125 C 6.316406 -0.726562 5.96875 -0.421875 5.5 -0.203125 C 5.039062 0.015625 4.472656 0.125 3.796875 0.125 Z M 3.796875 0.125 "/></g></g><g transform="translate(232.230458, 213.226481)"><g/></g></g><g fill="#38b6ff" fill-opacity="1"><g transform="translate(235.054677, 213.226481)"><g><path d="M 4.421875 -8.5625 C 5.035156 -8.5625 5.5625 -8.445312 6 -8.21875 C 6.4375 -8 6.765625 -7.6875 6.984375 -7.28125 C 7.203125 -6.882812 7.3125 -6.414062 7.3125 -5.875 C 7.3125 -5.34375 7.203125 -4.875 6.984375 -4.46875 C 6.765625 -4.070312 6.4375 -3.757812 6 -3.53125 C 5.5625 -3.300781 5.035156 -3.1875 4.421875 -3.1875 L 2.8125 -3.1875 L 2.8125 0 L 1.109375 0 L 1.109375 -8.5625 Z M 4.203125 -4.53125 C 5.140625 -4.53125 5.609375 -4.976562 5.609375 -5.875 C 5.609375 -6.769531 5.140625 -7.21875 4.203125 -7.21875 L 2.8125 -7.21875 L 2.8125 -4.53125 Z M 4.203125 -4.53125 "/></g></g><g transform="translate(242.882801, 213.226481)"><g><path d="M 8.21875 0 L 6.4375 0 L 5.796875 -1.96875 L 2.515625 -1.96875 L 1.875 0 L 0.125 0 L 3.09375 -8.5625 L 5.265625 -8.5625 Z M 4.078125 -6.78125 L 2.96875 -3.40625 L 5.328125 -3.40625 L 4.21875 -6.78125 Z M 4.078125 -6.78125 "/></g></g><g transform="translate(251.23241, 213.226481)"><g><path d="M 1.109375 0 L 1.109375 -8.5625 L 4.546875 -8.5625 C 5.441406 -8.5625 6.113281 -8.359375 6.5625 -7.953125 C 7.007812 -7.546875 7.234375 -6.984375 7.234375 -6.265625 C 7.234375 -5.742188 7.101562 -5.316406 6.84375 -4.984375 C 6.582031 -4.648438 6.1875 -4.394531 5.65625 -4.21875 L 5.65625 -4.109375 C 5.925781 -3.984375 6.144531 -3.804688 6.3125 -3.578125 C 6.476562 -3.347656 6.632812 -3.007812 6.78125 -2.5625 L 7.640625 0 L 5.90625 0 L 5.0625 -2.5625 C 4.976562 -2.820312 4.878906 -3.019531 4.765625 -3.15625 C 4.660156 -3.300781 4.523438 -3.40625 4.359375 -3.46875 C 4.191406 -3.53125 3.976562 -3.5625 3.71875 -3.5625 L 2.8125 -3.5625 L 2.8125 0 Z M 4.34375 -4.90625 C 5.164062 -4.90625 5.578125 -5.289062 5.578125 -6.0625 C 5.578125 -6.832031 5.164062 -7.21875 4.34375 -7.21875 L 2.8125 -7.21875 L 2.8125 -4.90625 Z M 4.34375 -4.90625 "/></g></g><g transform="translate(259.242175, 213.226481)"><g><path d="M 6.875 -8.5625 L 6.875 -7.140625 L 4.390625 -7.140625 L 4.390625 0 L 2.703125 0 L 2.703125 -7.140625 L 0.234375 -7.140625 L 0.234375 -8.5625 Z M 6.875 -8.5625 "/></g></g><g transform="translate(266.343737, 213.226481)"><g><path d="M 2.75 0 L 1.109375 0 L 1.109375 -8.5625 L 3.046875 -8.5625 L 6.5 -3.046875 L 6.640625 -3.078125 L 6.640625 -8.5625 L 8.28125 -8.5625 L 8.28125 0 L 6.546875 0 L 2.90625 -5.890625 L 2.75 -5.875 Z M 2.75 0 "/></g></g><g transform="translate(275.736315, 213.226481)"><g><path d="M 2.8125 -3.765625 L 2.8125 -1.421875 L 6.890625 -1.421875 L 6.890625 0 L 1.109375 0 L 1.109375 -8.5625 L 6.796875 -8.5625 L 6.796875 -7.15625 L 2.8125 -7.15625 L 2.8125 -5.140625 L 6.296875 -5.140625 L 6.296875 -3.765625 Z M 2.8125 -3.765625 "/></g></g><g transform="translate(283.101549, 213.226481)"><g><path d="M 1.109375 0 L 1.109375 -8.5625 L 4.546875 -8.5625 C 5.441406 -8.5625 6.113281 -8.359375 6.5625 -7.953125 C 7.007812 -7.546875 7.234375 -6.984375 7.234375 -6.265625 C 7.234375 -5.742188 7.101562 -5.316406 6.84375 -4.984375 C 6.582031 -4.648438 6.1875 -4.394531 5.65625 -4.21875 L 5.65625 -4.109375 C 5.925781 -3.984375 6.144531 -3.804688 6.3125 -3.578125 C 6.476562 -3.347656 6.632812 -3.007812 6.78125 -2.5625 L 7.640625 0 L 5.90625 0 L 5.0625 -2.5625 C 4.976562 -2.820312 4.878906 -3.019531 4.765625 -3.15625 C 4.660156 -3.300781 4.523438 -3.40625 4.359375 -3.46875 C 4.191406 -3.53125 3.976562 -3.5625 3.71875 -3.5625 L 2.8125 -3.5625 L 2.8125 0 Z M 4.34375 -4.90625 C 5.164062 -4.90625 5.578125 -5.289062 5.578125 -6.0625 C 5.578125 -6.832031 5.164062 -7.21875 4.34375 -7.21875 L 2.8125 -7.21875 L 2.8125 -4.90625 Z M 4.34375 -4.90625 "/></g></g></g></svg>